<svg id="twitter-banner" viewBox="0 0 1500 500" xmlns="http://www.w3.org/2000/svg" class="w-full border border-slate-700 rounded-lg">
                <defs>
                    <linearGradient id="grad1" x1="0%" y1="0%" x2="100%" y2="100%">
                        <stop offset="0%" style="stop-color:#60A5FA;stop-opacity:1"/>
                        <stop offset="50%" style="stop-color:#3B82F6;stop-opacity:1"/>
                        <stop offset="100%" style="stop-color:#1E40AF;stop-opacity:1"/>
                    </linearGradient>
                    <radialGradient id="glow1">
                        <stop offset="0%" style="stop-color:#60A5FA;stop-opacity:0.3"/>
                        <stop offset="100%" style="stop-color:#60A5FA;stop-opacity:0"/>
                    </radialGradient>
                </defs>
                
                <!-- Background -->
                <rect width="1500" height="500" fill="#0F172A"/>
                
                <!-- Subtle grid pattern -->
                <g opacity="0.03">
                    <line x1="0" y1="100" x2="1500" y2="100" stroke="#60A5FA" stroke-width="1"/>
                    <line x1="0" y1="200" x2="1500" y2="200" stroke="#60A5FA" stroke-width="1"/>
                    <line x1="0" y1="300" x2="1500" y2="300" stroke="#60A5FA" stroke-width="1"/>
                    <line x1="0" y1="400" x2="1500" y2="400" stroke="#60A5FA" stroke-width="1"/>
                    <line x1="300" y1="0" x2="300" y2="500" stroke="#60A5FA" stroke-width="1"/>
                    <line x1="600" y1="0" x2="600" y2="500" stroke="#60A5FA" stroke-width="1"/>
                    <line x1="900" y1="0" x2="900" y2="500" stroke="#60A5FA" stroke-width="1"/>
                    <line x1="1200" y1="0" x2="1200" y2="500" stroke="#60A5FA" stroke-width="1"/>
                </g>
                
                <!-- Glow effect -->
                <circle cx="450" cy="250" r="200" fill="url(#glow1)"/>
                
                <!-- Icon -->
                <g transform="translate(300, 100)">
                    <circle cx="150" cy="150" r="135" fill="#0A0F1E"/>
                    <path d="M 150 75 L 180 150 L 150 225 L 120 150 Z" fill="url(#grad1)"/>
                    <path d="M 150 75 L 180 150 L 150 135 Z" fill="#60A5FA" opacity="0.5"/>
                    <path d="M 180 150 L 150 225 L 165 150 Z" fill="#1E40AF" opacity="0.3"/>
                </g>
                
                <!-- Text -->
                <text x="700" y="235" font-size="120" font-weight="800" fill="#FFFFFF">Altair</text>
                <text x="700" y="310" font-size="36" font-weight="600" fill="#60A5FA">Where focus takes flight</text>
                
                <!-- Small stars decoration -->
                <circle cx="1350" cy="150" r="3" fill="#60A5FA" opacity="0.6"/>
                <circle cx="1400" cy="120" r="2" fill="#60A5FA" opacity="0.4"/>
                <circle cx="1380" cy="180" r="2.5" fill="#60A5FA" opacity="0.5"/>
            </svg>